PathFileType	4	(X/Y/Z)	OpenSim_Sub03_CSBaseline_Magnet.trc
DataRate	CameraRate	NumFrames	NumMarkers	Units	OrigDataRate	OrigDataStartFrame	OrigNumFrames
100	100	40	8	m	100	1	9288
Frame#	Time	torso_imu_offset_imu	pelvis_imu_offset_imu	tibia_r_imu_offset_imu	femur_r_imu_offset_imu	tibia_l_imu_offset_imu	femur_l_imu_offset_imu	toes_r_imu_offset_imu	toes_l_imu_offset_imu
				X1	Y1	Z1	X2	Y2	Z2	X3	Y3	Z3	X4	Y4	Z4	X5	Y5	Z5	X6	Y6	Z6	X7	Y7	Z7	X8		Y8	Z8	

1	0	-0.90606705	-0.20227558	0.21344224	-0.71398461	0.24658989	-0.59202980	-0.58613244	-0.56620444	-0.17360203	-0.59004555	-0.67386097	-0.14730464	-0.66536318	0.47065743	0.19514089	-0.69227738	0.37833055	0.33811411	-0.65584918	-0.30507050	-0.46422531	-0.75952148	-0.08575654	-0.35397503
2	0.01000000	-0.90606377	-0.19652735	0.21745776	-0.71596828	0.24436128	-0.59259428	-0.58927812	-0.57287746	-0.17057523	-0.59188447	-0.67988786	-0.14328019	-0.66820549	0.47473608	0.18930166	-0.69242471	0.37454997	0.32865163	-0.65294004	-0.30560188	-0.46256112	-0.75699189	-0.08792852	-0.35390223
3	0.02000000	-0.90519057	-0.19536914	0.21970761	-0.71434820	0.24644891	-0.59826606	-0.58681280	-0.57228745	-0.17279706	-0.59136366	-0.67650482	-0.14390045	-0.66516334	0.46928718	0.19246928	-0.68878582	0.37822088	0.33013527	-0.65501781	-0.30469087	-0.46273141	-0.75815965	-0.09025785	-0.36092789
4	0.03000000	-0.91197062	-0.19816419	0.21798144	-0.71815094	0.24034091	-0.59408199	-0.58717227	-0.57423339	-0.17318429	-0.59058806	-0.67304515	-0.13913789	-0.66076019	0.47516340	0.19175856	-0.69392972	0.37806114	0.32981129	-0.65906339	-0.30608804	-0.46449216	-0.75782632	-0.08458621	-0.36082166
5	0.04000000	-0.90490563	-0.19744616	0.21708514	-0.71148636	0.24169015	-0.59389801	-0.58744611	-0.57395875	-0.17469939	-0.59839079	-0.67691044	-0.14040726	-0.66308519	0.47487994	0.19534042	-0.69637940	0.37444259	0.32962358	-0.65229852	-0.30393056	-0.46272247	-0.76052284	-0.08612554	-0.35504096
6	0.05000000	-0.90558720	-0.20064322	0.21725369	-0.71407565	0.24492543	-0.59431771	-0.58587923	-0.57372886	-0.17138393	-0.59589751	-0.67370474	-0.14657351	-0.66418013	0.47018623	0.19897512	-0.68669943	0.37897916	0.33075771	-0.65743517	-0.30413730	-0.46791561	-0.75554777	-0.09078343	-0.35389880
7	0.06000000	-0.91061888	-0.19801022	0.21869587	-0.71732756	0.24697398	-0.59150741	-0.58326290	-0.57072910	-0.17163720	-0.59223917	-0.67655494	-0.13576239	-0.66651562	0.46996600	0.19376056	-0.68582007	0.37972705	0.33087978	-0.65544860	-0.30471425	-0.46118261	-0.75763081	-0.08398367	-0.35587991
8	0.07000000	-0.90535933	-0.19904518	0.21385602	-0.71258513	0.24226601	-0.59206325	-0.58518948	-0.56742230	-0.17503102	-0.59427750	-0.68024999	-0.14029593	-0.66294415	0.47555014	0.19104722	-0.68920188	0.37486313	0.32791719	-0.65571392	-0.30203494	-0.46195810	-0.75848995	-0.08427592	-0.35448614
9	0.08000000	-0.90629147	-0.20137603	0.21435002	-0.71313972	0.24118493	-0.58885048	-0.58661380	-0.57258783	-0.17176768	-0.59656063	-0.67606409	-0.14162293	-0.66635538	0.47730301	0.19497426	-0.69037357	0.38097455	0.32937012	-0.65833369	-0.29965015	-0.46663788	-0.75615456	-0.09057530	-0.36199588
10	0.09000000	-0.90442502	-0.19862939	0.20901649	-0.72172822	0.24101386	-0.59436571	-0.59198959	-0.57795337	-0.17398682	-0.59219247	-0.67692440	-0.14673650	-0.66716169	0.47253566	0.18969166	-0.69370803	0.37910452	0.32826323	-0.65707777	-0.30759658	-0.46196329	-0.76125048	-0.08510722	-0.35438175
11	0.10000000	-0.90986126	-0.19489011	0.21135786	-0.71876005	0.24208495	-0.59536865	-0.59020854	-0.57266729	-0.17624419	-0.59374185	-0.68011415	-0.14762666	-0.66389980	0.47121066	0.19115077	-0.68969081	0.37617075	0.32867612	-0.65704058	-0.30543329	-0.46491133	-0.76508658	-0.08432642	-0.35064662
12	0.11000000	-0.90722801	-0.19873221	0.21260914	-0.71783053	0.24244914	-0.59607644	-0.58610336	-0.57256903	-0.17215744	-0.59410106	-0.67854957	-0.14019151	-0.66372743	0.47205061	0.18707427	-0.69138376	0.38083954	0.32553254	-0.65191080	-0.30445012	-0.46175458	-0.76044931	-0.08371466	-0.35201806
13	0.12000000	-0.90675354	-0.19548175	0.21596900	-0.71470276	0.23908426	-0.59282913	-0.58510095	-0.57398748	-0.17227554	-0.59014247	-0.67236014	-0.15013546	-0.66403599	0.47385175	0.19131087	-0.69446871	0.37705755	0.32706284	-0.65566540	-0.30690567	-0.46689052	-0.75722960	-0.08630756	-0.35129072
14	0.13000000	-0.90656332	-0.19461915	0.21647735	-0.72194127	0.24237055	-0.58579684	-0.58390037	-0.57472014	-0.17456037	-0.59173221	-0.67365769	-0.14659364	-0.66130058	0.47358681	0.19291153	-0.68944970	0.37868596	0.32672753	-0.65507651	-0.30882027	-0.46730543	-0.75596102	-0.08542360	-0.35975789
15	0.14000000	-0.90949312	-0.19751282	0.21665060	-0.72375970	0.24205017	-0.58948202	-0.58028219	-0.57563079	-0.17895502	-0.59244031	-0.67094976	-0.14487748	-0.66603654	0.47359899	0.18938963	-0.69402892	0.37298800	0.33336364	-0.65362896	-0.30704726	-0.46507060	-0.76179591	-0.07871013	-0.36330767
16	0.15000000	-0.90739990	-0.19785383	0.21018267	-0.72050419	0.23902080	-0.59188404	-0.58130647	-0.57925924	-0.17318227	-0.59126902	-0.67521059	-0.14411962	-0.66460110	0.47381521	0.19298204	-0.69317176	0.37499363	0.32955828	-0.65931878	-0.30436651	-0.46242988	-0.75754060	-0.08694095	-0.35309414
17	0.16000000	-0.90642751	-0.19723818	0.20872757	-0.72416656	0.24208226	-0.59168056	-0.58298735	-0.58159295	-0.17304200	-0.59274915	-0.67415010	-0.14054036	-0.66260161	0.47287885	0.19380416	-0.69395645	0.38168325	0.32630885	-0.65854859	-0.30675335	-0.46314029	-0.75763035	-0.07956531	-0.35083423
18	0.17000000	-0.90724307	-0.19702253	0.20637706	-0.71600331	0.24381143	-0.58957323	-0.58224461	-0.57217610	-0.17384334	-0.59043752	-0.67560775	-0.14595682	-0.66381162	0.47193719	0.19088497	-0.69242375	0.37869580	0.33312672	-0.65714049	-0.30623592	-0.46763673	-0.75871653	-0.07937157	-0.35911539
19	0.18000000	-0.91076941	-0.19148758	0.20830645	-0.71699055	0.24224779	-0.59295629	-0.58080689	-0.57901574	-0.16967720	-0.59118129	-0.67475263	-0.14025876	-0.66439343	0.47815834	0.18966500	-0.68867272	0.37918748	0.32613279	-0.65490209	-0.30616926	-0.46188031	-0.75671272	-0.08416687	-0.35057803
20	0.19000000	-0.90523728	-0.19203817	0.21038399	-0.71788282	0.23834769	-0.58612477	-0.58341239	-0.57841727	-0.17003504	-0.59021431	-0.67099187	-0.13862655	-0.66500453	0.47796482	0.19215641	-0.68970617	0.37951364	0.32322977	-0.65923801	-0.30659905	-0.45922208	-0.76013002	-0.08248228	-0.35162101
21	0.20000000	-0.90826806	-0.19331239	0.20644888	-0.72164157	0.24001192	-0.58480265	-0.58126815	-0.57590036	-0.17124457	-0.58972502	-0.67456434	-0.13722965	-0.66862870	0.47128671	0.19038497	-0.69247137	0.38236825	0.32772239	-0.65729897	-0.30566752	-0.45954553	-0.76071747	-0.08343556	-0.35498188
22	0.21000000	-0.91153085	-0.19684397	0.20650038	-0.72118977	0.24022545	-0.58844604	-0.57993068	-0.57409869	-0.17095670	-0.59362471	-0.67261107	-0.14035392	-0.66233235	0.47310852	0.18775578	-0.69319211	0.38293698	0.32297573	-0.65397642	-0.30451076	-0.46373769	-0.75897110	-0.08392259	-0.35059284
23	0.22000000	-0.91631968	-0.19706192	0.20455267	-0.72074535	0.23687006	-0.58487150	-0.58107731	-0.58414042	-0.16481145	-0.59240099	-0.67549099	-0.14642580	-0.66224993	0.47285275	0.18881175	-0.69190923	0.38181071	0.33192304	-0.65492413	-0.30637616	-0.46664869	-0.75778065	-0.08752537	-0.34951457
24	0.23000000	-0.91234606	-0.19869589	0.20895004	-0.72315283	0.24027563	-0.58394818	-0.57681966	-0.58073979	-0.17022349	-0.59022835	-0.67614122	-0.14957569	-0.66178972	0.47879660	0.18884505	-0.69354592	0.38325126	0.32842781	-0.65684162	-0.30679577	-0.46069826	-0.75877599	-0.07673669	-0.35567915
25	0.24000000	-0.90917660	-0.19501348	0.21011116	-0.72761279	0.23997836	-0.58781561	-0.58101511	-0.57883924	-0.17423039	-0.59247817	-0.66940994	-0.14756870	-0.66589279	0.47786212	0.19314731	-0.69099022	0.38105181	0.32598114	-0.65586049	-0.30886772	-0.46123856	-0.76313438	-0.07854331	-0.35437453
26	0.25000000	-0.91043830	-0.19196340	0.20312954	-0.72090686	0.23765402	-0.59028217	-0.58114520	-0.58346054	-0.16794142	-0.59390079	-0.66924305	-0.14916573	-0.66482998	0.47785761	0.19012781	-0.69176681	0.38138306	0.31772173	-0.65403817	-0.30705103	-0.45877094	-0.75804789	-0.08636137	-0.35139457
27	0.26000000	-0.91172047	-0.19623498	0.20261317	-0.72061508	0.24197639	-0.58835573	-0.58188199	-0.58081246	-0.16589324	-0.58775251	-0.67955821	-0.14016664	-0.66654462	0.47410196	0.19375469	-0.69031922	0.38150394	0.32465264	-0.65509145	-0.30430395	-0.46135035	-0.75959924	-0.08149886	-0.35158822
28	0.27000000	-0.91266585	-0.19697575	0.20197973	-0.72590997	0.24022363	-0.58719721	-0.58175401	-0.57922845	-0.16831580	-0.58914756	-0.67581786	-0.14166606	-0.66510110	0.47228907	0.18751859	-0.69092145	0.38062985	0.32276927	-0.65689087	-0.30699981	-0.46546756	-0.75755083	-0.08127737	-0.35423716
29	0.28000000	-0.91241304	-0.19255269	0.20004553	-0.72229179	0.23980556	-0.58331328	-0.58378688	-0.58171237	-0.16731024	-0.59210346	-0.67276331	-0.14189545	-0.65863924	0.47616261	0.18556957	-0.69589191	0.37947306	0.32957201	-0.65558645	-0.30525993	-0.45924859	-0.75520981	-0.08110681	-0.34901495
30	0.29000000	-0.90732950	-0.19803894	0.20036208	-0.72141223	0.23992190	-0.58358083	-0.57700129	-0.57835343	-0.16951188	-0.59107801	-0.67265811	-0.14555732	-0.66009418	0.47659268	0.19063085	-0.69340701	0.38178279	0.32509819	-0.65570025	-0.30585243	-0.45890542	-0.75979181	-0.08800164	-0.34867263
31	0.30000000	-0.91000452	-0.19708658	0.20104989	-0.72415977	0.23783813	-0.58492866	-0.57738351	-0.58454328	-0.17160436	-0.58716128	-0.68218550	-0.14801807	-0.66115047	0.47697689	0.19112026	-0.69279828	0.38067050	0.32796367	-0.65768148	-0.31008190	-0.46357656	-0.76159555	-0.08288493	-0.35062627
32	0.31000000	-0.90995959	-0.19519151	0.19732534	-0.72524772	0.24031686	-0.58896066	-0.57668202	-0.58574871	-0.17170165	-0.59458354	-0.67895471	-0.14545608	-0.66662343	0.47366980	0.18897207	-0.69249158	0.37897224	0.32803154	-0.65419400	-0.30470804	-0.46175944	-0.75989789	-0.07593756	-0.35495413
33	0.32000000	-0.91235699	-0.19831551	0.19299260	-0.72231018	0.23798362	-0.58785220	-0.57263064	-0.58176522	-0.17147121	-0.59344512	-0.67725759	-0.14694651	-0.66033396	0.47629791	0.18653517	-0.69560649	0.37909447	0.32554762	-0.65744954	-0.30540124	-0.46328478	-0.75779767	-0.08320634	-0.35831804
34	0.33000000	-0.91431740	-0.19696577	0.19679614	-0.72108417	0.24020748	-0.58518976	-0.57731887	-0.58286630	-0.16466745	-0.58722296	-0.67705917	-0.14726409	-0.66434360	0.47536500	0.18461167	-0.68896253	0.37960923	0.32125365	-0.65835083	-0.30828162	-0.46143700	-0.76069769	-0.08017938	-0.35115468
35	0.34000000	-0.91241577	-0.19827881	0.19237248	-0.72116938	0.23835966	-0.58413300	-0.57935829	-0.58174618	-0.17268643	-0.58755130	-0.67751357	-0.14309725	-0.66464360	0.47734075	0.18623776	-0.68943305	0.38207232	0.32595216	-0.65921863	-0.30601383	-0.46016470	-0.75598015	-0.07905871	-0.34999316
36	0.35000000	-0.91025818	-0.19695589	0.19923025	-0.72143707	0.23869400	-0.58671653	-0.57932890	-0.58067736	-0.16630287	-0.59159273	-0.68309450	-0.14420424	-0.66343689	0.47943316	0.18951995	-0.69587956	0.38357473	0.32994583	-0.66004828	-0.30670929	-0.45778876	-0.75745447	-0.08486360	-0.35179691
37	0.36000000	-0.91476435	-0.19843874	0.19690822	-0.72442891	0.23490912	-0.58462031	-0.57729918	-0.58288127	-0.16637463	-0.59335467	-0.67389236	-0.14723368	-0.66552726	0.47552862	0.18525520	-0.69092058	0.38328118	0.33301959	-0.65911272	-0.30546568	-0.46259690	-0.75899624	-0.08465917	-0.35405026
38	0.37000000	-0.91199760	-0.19626671	0.19263184	-0.72409355	0.24263881	-0.58120751	-0.58006318	-0.58216363	-0.17156395	-0.59162851	-0.68111230	-0.14744672	-0.66540508	0.47970734	0.18402698	-0.69184560	0.38454619	0.32713348	-0.65947565	-0.30526722	-0.46354538	-0.75947091	-0.08646324	-0.34961320
39	0.38000000	-0.90672300	-0.19644599	0.19112831	-0.72274719	0.23654579	-0.58073951	-0.57557993	-0.58369625	-0.17037467	-0.58807191	-0.68111101	-0.14637492	-0.66500083	0.48229093	0.18981941	-0.69159042	0.38433429	0.32583526	-0.65742934	-0.30814378	-0.45939237	-0.76104364	-0.08252278	-0.35111542
40	0.39000000	-0.90817273	-0.19720007	0.19211079	-0.72688488	0.23884300	-0.57912260	-0.57277562	-0.58689347	-0.16593179	-0.58929802	-0.67686800	-0.14802052	-0.66244545	0.47950458	0.18491424	-0.69118301	0.38269532	0.32007782	-0.65986621	-0.30675198	-0.45533140	-0.75824841	-0.08033273	-0.35262598
